# xmcd CD database file
#
# Track frame offsets:
#	150
#	19307
#	41147
#	62102
#	81285
#	98805
#	119550
#	137372
#	154855
#	175380
#	196232
#	218665
#	242636
#	258225
#
# Disc length: 3705 seconds
#
# Revision: 5
# Processed by: cddbd v1.5.2PL0 Copyright (c) Steve Scherf et al.
# Submitted via: CDex 1.70beta3
#
DISCID=c20e770e
DTITLE=AUDIOSLAVE - Out of Exile
DYEAR=2005
DGENRE=Loud Rock
TTITLE0=Your Time Has Come
TTITLE1=Out of Exile
TTITLE2=Be Yourself
TTITLE3=Doesn't Remind Me
TTITLE4=Drown Me Slowly
TTITLE5=Heaven's Dead
TTITLE6=The Worm
TTITLE7=Man Or Animal
TTITLE8=Yesterday to Tomorrow
TTITLE9=Dandelion
TTITLE10=#1 Zero
TTITLE11=The Curse
TTITLE12=Super Stupid (Funkadelic cover)
TTITLE13=Like a Stone （Live）
EXTD=YEAR: 2005
EXTT0=
EXTT1=
EXTT2=
EXTT3=
EXTT4=
EXTT5=
EXTT6=
EXTT7=
EXTT8=
EXTT9=
EXTT10=
EXTT11=
EXTT12=
EXTT13=
PLAYORDER=
